PathFileType	4	(X/Y/Z)	D:\TRACE\spot_10-12-23\spot_body_baseline_4-platform.trc
DataRate	CameraRate	NumFrames	NumMarkers	Units	OrigDataRate	OrigDataStartFrame	OrigNumFrames
100.00	100.00	      37	5	mm	100.00	6126	      7000
Frame#	Time	Left_Front			Right_Front			Left_Aft			Right_Aft			Post			
		X1	Y1	Z1	X2	Y2	Z2	X3	Y3	Z3	X4	Y4	Z4	X5	Y5	Z5	

6126	61.250	-780.59064	6.31255	-641.50281	791.57495	11.11636	-634.88824	-697.80243	5.58558	496.40063	719.36707	9.95785	582.28900	1.77377	744.02667	-959.42987	
6127	61.260	-780.68817	6.39445	-641.47076	791.60052	11.08010	-634.86761	-697.87225	5.56631	496.37711	719.33820	9.91800	582.24493	1.71900	743.93756	-959.40662	
6128	61.270	-780.73981	6.41742	-641.44916	791.56152	11.11865	-634.87787	-697.84711	5.62551	496.37717	719.30383	9.95179	582.23578	1.85038	743.92621	-959.30756	
6129	61.280	-780.58545	6.30225	-641.53528	791.67651	11.07458	-634.85748	-697.77533	5.64675	496.38916	719.27594	9.99003	582.20099	1.79905	743.87372	-959.33020	
6130	61.290	-780.63763	6.33124	-641.51624	791.44928	11.09123	-635.03076	-697.81873	5.69445	496.39944	719.27509	10.03451	582.22736	1.84946	743.86353	-959.29932	
6131	61.300	-780.71149	6.42705	-641.48895	791.42499	11.05323	-635.03571	-697.79517	5.65971	496.39365	719.30243	9.96814	582.18707	1.81626	743.87653	-959.32910	
6132	61.310	-780.69806	6.39727	-641.48981	791.62677	11.04532	-634.90009	-697.83521	5.60670	496.38553	719.27844	9.91116	582.18018	1.75714	743.88110	-959.38391	
6133	61.320	-780.72076	6.42365	-641.46753	791.64740	11.11080	-634.88495	-697.83813	5.57710	496.38785	719.27863	9.91033	582.18317	1.77957	743.88867	-959.45221	
6134	61.330	-780.58411	6.28437	-641.55359	791.62207	11.12811	-634.88483	-697.84570	5.61041	496.39215	719.26111	9.91888	582.18317	1.76150	743.94806	-959.53046	
6135	61.340	-780.64233	6.38260	-641.51831	791.62732	11.11490	-634.84656	-697.81464	5.60360	496.41687	719.26324	9.90940	582.14807	1.76923	743.98645	-959.59235	
6136	61.350	-780.61615	6.35199	-641.52692	791.65253	11.13965	-634.84265	-697.81110	5.62429	496.41306	719.24744	9.88853	582.13690	1.75278	743.96710	-959.58075	
6137	61.360	-780.55115	6.29831	-641.52277	791.61841	11.05559	-634.87347	-697.81726	5.58263	496.42722	719.23633	9.83420	582.12762	1.50219	743.99774	-959.54468	
6138	61.370	-780.63977	6.32378	-641.50439	791.64539	11.03205	-634.86151	-697.82751	5.60619	496.36716	719.19714	9.87302	582.12012	1.76389	743.94720	-959.40106	
6139	61.380	-780.58136	6.26443	-641.51331	791.61725	11.02228	-634.87897	-697.80493	5.62621	496.37305	719.12250	9.86886	582.07111	1.84369	743.92700	-959.40753	
6140	61.390	-780.60315	6.30434	-641.49664	791.65198	11.06776	-634.89166	-697.82031	5.61742	496.35486	719.14160	9.87331	582.05414	1.81427	743.91870	-959.38306	
6141	61.400	-780.63300	6.33752	-641.52014	791.41522	11.11403	-635.04279	-697.82782	5.64499	496.38773	719.14740	9.88374	582.05957	1.83846	743.95782	-959.39453	
6142	61.410	-780.58362	6.30096	-641.51892	791.63947	11.08840	-634.88062	-697.80109	5.63179	496.37256	719.16583	9.86736	582.04700	1.73402	743.95648	-959.41095	
6143	61.420	-780.56964	6.29690	-641.48029	791.61865	11.11703	-634.86011	-697.80811	5.58664	496.37961	719.12317	9.80931	582.05981	1.80787	743.97717	-959.38647	
6144	61.430	-780.53998	6.25383	-641.47748	791.59119	11.12312	-634.91803	-697.89441	5.59284	496.35831	719.10065	9.79317	582.06812	1.76142	744.02869	-959.43811	
6145	61.440	-780.61249	6.30755	-641.51550	791.58948	11.10076	-634.89532	-697.85016	5.58081	496.38943	719.09314	9.77198	582.06140	1.78254	744.01740	-959.38074	
6146	61.450	-780.57678	6.30906	-641.52252	791.60815	11.10730	-634.86694	-697.82043	5.61611	496.37936	719.11194	9.78083	582.07227	1.74419	744.02997	-959.47839	
6147	61.460	-780.60614	6.33684	-641.49695	791.62146	11.15866	-634.84949	-697.76758	5.62578	496.38681	719.11682	9.77613	582.07202	1.73240	744.01703	-959.44745	
6148	61.470	-780.65186	6.37681	-641.46655	791.66321	11.05740	-634.86493	-697.78168	5.62191	496.37766	719.07489	9.78633	582.05304	1.76391	743.98285	-959.45691	
6149	61.480	-780.56683	6.28366	-641.52588	791.57520	11.03953	-634.91431	-697.84851	5.63814	496.36319	719.06244	9.78835	582.02533	1.76068	743.90131	-959.42688	
6150	61.490	-780.60535	6.28616	-641.51135	791.57776	11.00635	-634.92249	-697.82257	5.64102	496.37912	719.06201	9.82979	582.03357	1.77697	743.94702	-959.41229	
6151	61.500	-780.59686	6.31030	-641.50745	791.68030	11.01760	-634.85553	-697.83856	5.62427	496.36688	719.06628	9.78679	582.01959	1.77096	743.94543	-959.43353	
6152	61.510	-780.57043	6.30302	-641.52802	791.69226	11.08928	-634.86224	-697.79205	5.61757	496.39716	719.08521	9.76761	582.00488	1.75222	743.96600	-959.48785	
6153	61.520	-779.92084	5.80479	-641.87054	791.55951	11.13328	-634.89325	-697.78308	5.61315	496.39526	719.01538	9.72392	582.00995	1.78391	744.01068	-959.53552	
6154	61.530	-780.64099	6.34839	-641.48309	791.57074	11.09868	-634.88446	-697.82513	5.58543	496.41202	718.98627	9.70048	582.00391	1.68739	744.01099	-959.53528	
6155	61.540	-780.67291	6.35293	-641.47241	791.61682	11.09165	-634.91205	-697.82214	5.59966	496.39383	718.95410	9.66219	582.01239	1.74011	744.02045	-959.51569	
6156	61.550	-780.59070	6.31606	-641.51318	791.60724	11.10009	-634.89178	-697.82776	5.58690	496.39096	719.00592	9.66368	582.01379	1.71536	744.02081	-959.45984	
6157	61.560	-780.52759	6.25679	-641.54205	791.64063	11.09630	-634.90179	-697.80231	5.60581	496.42572	718.99084	9.69635	581.97552	1.77279	744.02924	-959.39337	
6158	61.570	-780.63605	6.34556	-641.49762	791.62872	11.08373	-634.87970	-697.84253	5.61139	496.35608	718.94391	9.71730	581.91949	1.76118	744.00024	-959.37317	
6159	61.580	-780.60706	6.29847	-641.49664	791.46887	11.06687	-635.03271	-697.82587	5.60745	496.35336	718.88593	9.72126	581.90033	1.80968	743.95996	-959.34503	
6160	61.590	-780.59912	6.29741	-641.49860	791.62750	10.99073	-634.92090	-697.83740	5.61848	496.37079	718.87872	9.65952	581.88885	1.76570	743.96002	-959.34650	
6161	61.600	-780.59595	6.29531	-641.51758	791.67767	11.05295	-634.84351	-697.83325	5.63222	496.39969	718.81909	9.57440	581.87012	1.74564	743.98621	-959.42712	
6162	61.610	-780.63678	6.34474	-641.49902	791.58350	11.08552	-634.90479	-697.86053	5.61404	496.38116	718.82715	9.55925	581.86810	1.75283	744.00586	-959.45172	
